# xmcd
#
# Track frame offsets:
# 150
# 28783
# 58513
# 79473
# 106333
# 123974
# 149483
# 172944
# 196701
# 219465
#
# Disc length: 3243 seconds
#
#
# Revision: 5
# Processed by: cddbd v1.5.1PL2 Copyright (c) Steve Scherf et al.
# Submitted via: FreeRIP 2.92 
#
DISCID=880ca90a
DTITLE=Van Morrison - The Healing Game
DYEAR=1997
DGENRE=Blues
TTITLE0=Rough God Goes Riding
TTITLE1=Fire In The Belly
TTITLE2=This Weight
TTITLE3=Waiting Game
TTITLE4=Piper At The Gates Of Dawn
TTITLE5=Burning Ground
TTITLE6=It Once Was My Life
TTITLE7=Sometimes We Cry
TTITLE8=If You Love Me
TTITLE9=The Healing Game
EXTD=YEAR: 1997
EXTT0=
EXTT1=
EXTT2=
EXTT3=
EXTT4=
EXTT5=
EXTT6=
EXTT7=
EXTT8=
EXTT9=
PLAYORDER=
